<svg width="25" height="24" viewBox="0 0 25 24" fill="none" xmlns="http://www.w3.org/2000/svg">
<path d="M5.5 8C3.84 8 2.5 9.34 2.5 11V19C2.5 20.66 3.84 22 5.5 22H7C8.1 22 9 21.1 9 20V10C9 8.9 8.1 8 7 8H5.5ZM6.5 17C6.5 17.41 6.16 17.75 5.75 17.75C5.34 17.75 5 17.41 5 17V13C5 12.59 5.34 12.25 5.75 12.25C6.16 12.25 6.5 12.59 6.5 13V17Z" fill="#9EADCB"/>
<path d="M19.5 2H13.5C11.84 2 10.5 3.34 10.5 5V19C10.5 20.66 11.84 22 13.5 22H14C14.28 22 14.5 21.78 14.5 21.5V18C14.5 17.45 14.95 17 15.5 17H17.5C18.05 17 18.5 17.45 18.5 18V21.5C18.5 21.78 18.72 22 19 22H19.5C21.16 22 22.5 20.66 22.5 19V5C22.5 3.34 21.16 2 19.5 2ZM15.25 13C15.25 13.41 14.91 13.75 14.5 13.75C14.09 13.75 13.75 13.41 13.75 13V8C13.75 7.59 14.09 7.25 14.5 7.25C14.91 7.25 15.25 7.59 15.25 8V13ZM19.25 13C19.25 13.41 18.91 13.75 18.5 13.75C18.09 13.75 17.75 13.41 17.75 13V8C17.75 7.59 18.09 7.25 18.5 7.25C18.91 7.25 19.25 7.59 19.25 8V13Z" fill="#9EADCB"/>
</svg>
