<svg width="40" height="40" viewBox="0 0 40 40" fill="none" xmlns="http://www.w3.org/2000/svg">
<path d="M39.1667 18.3333C38.7067 18.3333 38.3333 17.96 38.3333 17.5C38.3333 8.77 31.23 1.66667 22.5 1.66667C22.04 1.66667 21.6667 1.29333 21.6667 0.833333C21.6667 0.373333 22.04 0 22.5 0C32.15 0 40 7.85 40 17.5C40 17.96 39.6267 18.3333 39.1667 18.3333ZM33.3333 17.5C33.3333 11.5267 28.4733 6.66667 22.5 6.66667C22.04 6.66667 21.6667 7.04 21.6667 7.5C21.6667 7.96 22.04 8.33333 22.5 8.33333C27.555 8.33333 31.6667 12.445 31.6667 17.5C31.6667 17.96 32.04 18.3333 32.5 18.3333C32.96 18.3333 33.3333 17.96 33.3333 17.5ZM37.0567 37.1183L38.6867 35.2433C39.5333 34.3967 40 33.27 40 32.0733C40 30.8767 39.5333 29.7483 38.605 28.8317L34.5283 25.71C32.7817 23.9633 29.94 23.9617 28.19 25.705L25.6367 28.195C19.5033 25.6967 14.5067 20.695 11.8133 14.3567L14.2933 11.815C16.0417 10.0667 16.0417 7.22167 14.365 5.555L11.1 1.31667C9.405 -0.378333 6.41167 -0.338333 4.8 1.27833L2.84333 2.985C1.00833 4.81 0 7.28833 0 9.96C0 22.875 17.125 40 30.04 40C32.7117 40 35.1883 38.9917 37.0567 37.1183ZM9.84833 2.41L13.1133 6.64833C14.2117 7.74667 14.2117 9.535 13.1067 10.6417L10.2367 13.585C10.0067 13.8217 9.93667 14.1717 10.06 14.4783C12.9417 21.6533 18.5817 27.2917 25.5367 29.945C25.84 30.0617 26.1833 29.99 26.415 29.765L29.3583 26.895C29.3583 26.895 29.3633 26.89 29.365 26.8867C30.43 25.82 32.205 25.7517 33.4317 26.9583L37.5083 30.08C38.6067 31.1783 38.6067 32.965 37.47 34.1067L35.8383 35.9817C34.325 37.4983 32.265 38.3333 30.04 38.3333C18.1067 38.3333 1.66667 21.8933 1.66667 9.96C1.66667 7.735 2.50167 5.675 3.97833 4.2L5.93667 2.49167C6.49667 1.93167 7.235 1.65833 7.96167 1.65833C8.66 1.65833 9.34667 1.91167 9.85 2.41167L9.84833 2.41Z" fill="#E2AC6C"/>
</svg>
