<svg width="40" height="40" viewBox="0 0 40 40" fill="none" xmlns="http://www.w3.org/2000/svg">
<path d="M32.5 6.66667H29.9533C29.5367 2.92167 26.3533 0 22.5 0H7.5C3.365 0 0 3.365 0 7.5V30.59C0 31.6033 0.555 32.5333 1.45 33.0117C1.85833 33.23 2.30333 33.3367 2.74833 33.3367C3.28 33.3367 3.81 33.1817 4.27 32.8767L10.1433 28.96C10.825 32.3983 13.865 34.9983 17.5 34.9983H28.915L35.7317 39.5433C36.19 39.85 36.7217 40.0033 37.2533 40.0033C37.6983 40.0033 38.1433 39.8967 38.55 39.6783C39.445 39.1983 40 38.27 40 37.2567V14.1667C40 10.0317 36.635 6.66667 32.5 6.66667ZM3.345 31.4917C3.00833 31.7183 2.59333 31.7367 2.23667 31.5433C1.88 31.3533 1.66667 30.9967 1.66667 30.5917V7.5C1.66667 4.28333 4.28333 1.66667 7.5 1.66667H22.5C25.7167 1.66667 28.3333 4.28333 28.3333 7.5V20.8333C28.3333 24.05 25.7167 26.6667 22.5 26.6667H10.8333C10.5417 26.6667 10.37 26.8067 10.3633 26.8117L3.345 31.49V31.4917ZM38.3333 37.2583C38.3333 37.6633 38.12 38.02 37.7633 38.21C37.4017 38.4033 36.9933 38.3817 36.6533 38.1583L29.6283 33.4733C29.4917 33.3817 29.33 33.3333 29.1667 33.3333H17.5C14.5667 33.3333 12.1317 31.1567 11.7267 28.3333H22.5C26.635 28.3333 30 24.9683 30 20.8333V8.33333H32.5C35.7167 8.33333 38.3333 10.95 38.3333 14.1667V37.2583ZM10.0167 9C10.5517 6.36333 13.1867 4.59833 15.9 5.07833C17.9133 5.43 19.5683 7.08333 19.9217 9.1C20.295 11.2217 19.2867 13.345 17.4117 14.38C16.2167 15.0383 15.8333 15.4917 15.8333 16.2483C15.8333 16.7083 15.46 17.0817 15 17.0817C14.54 17.0817 14.1667 16.7083 14.1667 16.2483C14.1667 14.2633 15.755 13.39 16.6067 12.92C17.8767 12.22 18.5333 10.8333 18.2783 9.38833C18.0433 8.05 16.9483 6.95333 15.6117 6.71833C13.7767 6.39833 12.0067 7.57167 11.65 9.33C11.5583 9.78167 11.12 10.0733 10.6667 9.98167C10.215 9.88833 9.925 9.45 10.015 8.99833L10.0167 9ZM16.6667 21.6667C16.6667 22.5867 15.92 23.3333 15 23.3333C14.08 23.3333 13.3333 22.5867 13.3333 21.6667C13.3333 20.7467 14.08 20 15 20C15.92 20 16.6667 20.7467 16.6667 21.6667Z" fill="#E2AC6C"/>
</svg>
