<svg width="18" height="18" viewBox="0 0 18 18" fill="none" xmlns="http://www.w3.org/2000/svg">
<g clip-path="url(#clip0_1_170)">
<path d="M16.125 3H13.5V1.875C13.5 0.84075 12.6585 0 11.625 0H1.875C0.8415 0 0 0.84075 0 1.875V13.7655C0 14.2215 0.24975 14.64 0.6525 14.8552C0.83625 14.9535 1.0365 15.0015 1.23675 15.0015C1.476 15.0015 1.7145 14.9318 1.9215 14.7945L4.5 13.0755V15.75H13.0118L16.0785 17.7952C16.2855 17.9332 16.524 18.0023 16.7633 18.0023C16.9635 18.0023 17.1637 17.9543 17.3475 17.856C17.7502 17.6408 18 17.2222 18 16.7663V4.875C18 3.84075 17.1585 3 16.125 3ZM1.50525 14.1713C1.3545 14.2733 1.16775 14.2815 1.0065 14.1945C0.846 14.109 0.75 13.9485 0.75 13.7662V1.875C0.75 1.25475 1.25475 0.75 1.875 0.75H11.625C12.2452 0.75 12.75 1.25475 12.75 1.875V12H4.76175L1.50525 14.1713ZM17.25 16.7663C17.25 16.9485 17.154 17.109 16.9935 17.1945C16.8323 17.2808 16.647 17.2725 16.4948 17.1712L13.239 15H5.25V12.75H13.5V3.75H16.125C16.7453 3.75 17.25 4.25475 17.25 4.875V16.7663Z" fill="#052440"/>
</g>
<defs>
<clipPath id="clip0_1_170">
<rect width="18" height="18" fill="white"/>
</clipPath>
</defs>
</svg>
