<svg width="21" height="18" viewBox="0 0 21 18" fill="none" xmlns="http://www.w3.org/2000/svg">
<path d="M0.540833 7.93274L1.12833 3.76607C1.27274 2.77435 1.7681 1.86733 2.52442 1.20979C3.28074 0.55226 4.24783 0.18784 5.25 0.182739H16.3333C17.438 0.184062 18.497 0.623474 19.2782 1.40459C20.0593 2.1857 20.4987 3.24474 20.5 4.34941V8.51607C20.4987 9.62074 20.0593 10.6798 19.2782 11.4609C18.497 12.242 17.438 12.6814 16.3333 12.6827H14.0733L12.4783 15.9144C12.2102 16.4591 11.7552 16.8892 11.1964 17.1263C10.6375 17.3635 10.012 17.3918 9.434 17.2062C8.85598 17.0206 8.36394 16.6335 8.04761 16.1153C7.73129 15.5971 7.61176 14.9825 7.71083 14.3836L7.99083 12.6827H4.66667C4.07019 12.6828 3.48065 12.5547 2.93792 12.3073C2.39519 12.0598 1.91191 11.6987 1.52077 11.2484C1.12962 10.7981 0.839714 10.269 0.670656 9.69702C0.501598 9.125 0.457325 8.52334 0.540833 7.93274ZM16.3333 1.84941H14.6667V11.0161H16.3333C16.9964 11.0161 17.6323 10.7527 18.1011 10.2838C18.5699 9.815 18.8333 9.17911 18.8333 8.51607V4.34941C18.8333 3.68636 18.5699 3.05048 18.1011 2.58164C17.6323 2.1128 16.9964 1.84941 16.3333 1.84941ZM2.78 10.1561C3.01465 10.426 3.3045 10.6425 3.62997 10.7909C3.95545 10.9392 4.30897 11.016 4.66667 11.0161H8.9725C9.09337 11.016 9.2128 11.0423 9.3225 11.0931C9.43221 11.1438 9.52956 11.2178 9.60781 11.3099C9.68606 11.402 9.74333 11.5101 9.77566 11.6266C9.80798 11.743 9.81458 11.8651 9.795 11.9844L9.355 14.6511C9.33387 14.7748 9.34031 14.9018 9.37388 15.0228C9.40744 15.1438 9.46729 15.2559 9.54917 15.3511C9.64516 15.4546 9.76436 15.5338 9.89695 15.5822C10.0295 15.6306 10.1717 15.6469 10.3118 15.6297C10.4519 15.6124 10.5859 15.5621 10.7028 15.483C10.8197 15.4039 10.9161 15.2981 10.9842 15.1744L12.8083 11.4811C12.8565 11.3887 12.9215 11.3062 13 11.2377V1.84941H5.25C4.64811 1.85161 4.06706 2.07001 3.61275 2.46482C3.15844 2.85963 2.86112 3.40454 2.775 4.00024L2.18667 8.16691C2.13732 8.52162 2.16476 8.88279 2.26712 9.22598C2.36949 9.56917 2.5444 9.88636 2.78 10.1561Z" fill="black"/>
</svg>
