<svg width="23" height="14" viewBox="0 0 23 14" fill="none" xmlns="http://www.w3.org/2000/svg">
<path d="M21.7691 2.43437H1.23086C0.601954 2.43437 0.0898438 1.92227 0.0898438 1.29336C0.0898438 0.664453 0.601954 0.152344 1.23086 0.152344H21.7691C22.398 0.152344 22.9102 0.664453 22.9102 1.29336C22.9102 1.92227 22.398 2.43437 21.7691 2.43437Z" fill="#052440"/>
<path d="M1.23086 5.85938H21.7691C22.398 5.85938 22.9102 6.37148 22.9102 7.00039C22.9102 7.6293 22.398 8.14141 21.7691 8.14141H1.23086C0.601954 8.14141 0.0898438 7.6293 0.0898438 7.00039C0.0898438 6.37148 0.601954 5.85938 1.23086 5.85938Z" fill="#052440"/>
<path d="M11.5 11.5625H21.7691C22.398 11.5625 22.9102 12.0746 22.9102 12.7035C22.9102 13.3324 22.398 13.8445 21.7691 13.8445H11.5C10.8711 13.8445 10.359 13.3324 10.359 12.7035C10.359 12.0746 10.8711 11.5625 11.5 11.5625Z" fill="#052440"/>
</svg>
