<svg width="21" height="18" viewBox="0 0 21 18" fill="none" xmlns="http://www.w3.org/2000/svg">
<path d="M20.4592 9.57739L19.8717 13.7441C19.7273 14.7358 19.2319 15.6428 18.4756 16.3003C17.7193 16.9579 16.7522 17.3223 15.75 17.3274H4.66667C3.562 17.3261 2.50296 16.8867 1.72185 16.1055C0.940735 15.3244 0.501323 14.2654 0.5 13.1607L0.5 8.99406C0.501323 7.8894 0.940735 6.83036 1.72185 6.04924C2.50296 5.26813 3.562 4.82872 4.66667 4.82739H6.92667L8.52167 1.59573C8.78981 1.05106 9.24479 0.620934 9.80365 0.383787C10.3625 0.146643 10.988 0.118284 11.566 0.303886C12.144 0.489487 12.6361 0.876678 12.9524 1.39484C13.2687 1.913 13.3882 2.52761 13.2892 3.12656L13.0092 4.82739H16.3333C16.9298 4.82736 17.5193 4.9554 18.0621 5.20285C18.6048 5.4503 19.0881 5.81139 19.4792 6.26172C19.8704 6.71204 20.1603 7.24109 20.3293 7.81312C20.4984 8.38514 20.5427 8.98679 20.4592 9.57739ZM4.66667 15.6607H6.33333V6.49406H4.66667C4.00363 6.49406 3.36774 6.75745 2.8989 7.22629C2.43006 7.69513 2.16667 8.33102 2.16667 8.99406V13.1607C2.16667 13.8238 2.43006 14.4597 2.8989 14.9285C3.36774 15.3973 4.00363 15.6607 4.66667 15.6607ZM18.22 7.35406C17.9854 7.08408 17.6955 6.86761 17.37 6.71924C17.0446 6.57088 16.691 6.49409 16.3333 6.49406H12.0275C11.9066 6.49408 11.7872 6.46781 11.6775 6.41707C11.5678 6.36633 11.4704 6.29233 11.3922 6.20021C11.3139 6.10809 11.2567 6.00004 11.2243 5.88358C11.192 5.76711 11.1854 5.645 11.205 5.52572L11.645 2.85906C11.6661 2.73528 11.6597 2.60837 11.6261 2.48737C11.5926 2.36637 11.5327 2.25426 11.4508 2.15906C11.3548 2.05557 11.2356 1.97635 11.103 1.92792C10.9705 1.87949 10.8283 1.86322 10.6882 1.88047C10.5481 1.89772 10.4141 1.94799 10.2972 2.02713C10.1803 2.10628 10.0839 2.21204 10.0158 2.33573L8.19167 6.02906C8.14355 6.12144 8.07854 6.20397 8 6.27239V15.6607H15.75C16.3519 15.6585 16.9329 15.4401 17.3873 15.0453C17.8416 14.6505 18.1389 14.1056 18.225 13.5099L18.8133 9.34323C18.8627 8.98851 18.8352 8.62734 18.7329 8.28415C18.6305 7.94096 18.4556 7.62378 18.22 7.35406Z" fill="black"/>
</svg>
