<svg width="16" height="18" viewBox="0 0 16 18" fill="none" xmlns="http://www.w3.org/2000/svg">
<path d="M7.9684 18.006L7.44559 17.5579C6.72486 16.9544 0.431641 11.5193 0.431641 7.54372C0.431641 3.38129 3.80597 0.00695801 7.9684 0.00695801C12.1308 0.00695801 15.5052 3.38129 15.5052 7.54372C15.5052 11.5194 9.21195 16.9544 8.4942 17.5609L7.9684 18.006ZM7.9684 1.63663C4.70756 1.64032 2.06504 4.28284 2.06134 7.54368C2.06134 10.0413 5.93317 14.0311 7.9684 15.8572C10.0037 14.0303 13.8755 10.0382 13.8755 7.54368C13.8718 4.28284 11.2293 1.64035 7.9684 1.63663Z" fill="#052440"/>
<path d="M7.96798 10.5312C6.31802 10.5312 4.98047 9.19361 4.98047 7.54366C4.98047 5.89371 6.31802 4.55615 7.96798 4.55615C9.61793 4.55615 10.9555 5.89371 10.9555 7.54366C10.9555 9.19361 9.61796 10.5312 7.96798 10.5312ZM7.96798 6.04987C7.143 6.04987 6.47422 6.71865 6.47422 7.54363C6.47422 8.3686 7.143 9.03738 7.96798 9.03738C8.79295 9.03738 9.46173 8.3686 9.46173 7.54363C9.46173 6.71865 8.79299 6.04987 7.96798 6.04987Z" fill="#052440"/>
</svg>
