<svg width="40" height="40" viewBox="0 0 40 40" fill="none" xmlns="http://www.w3.org/2000/svg">
<path d="M21.667 16.6667C21.667 17.5867 20.9203 18.3333 20.0003 18.3333C19.0803 18.3333 18.3336 17.5867 18.3336 16.6667C18.3336 15.7467 19.0803 15 20.0003 15C20.9203 15 21.667 15.7467 21.667 16.6667ZM28.3336 15C27.4136 15 26.667 15.7467 26.667 16.6667C26.667 17.5867 27.4136 18.3333 28.3336 18.3333C29.2536 18.3333 30.0003 17.5867 30.0003 16.6667C30.0003 15.7467 29.2536 15 28.3336 15ZM11.667 15C10.747 15 10.0003 15.7467 10.0003 16.6667C10.0003 17.5867 10.747 18.3333 11.667 18.3333C12.587 18.3333 13.3336 17.5867 13.3336 16.6667C13.3336 15.7467 12.587 15 11.667 15ZM40.0003 5.83333V27.5C40.0003 30.7167 37.3836 33.3333 34.167 33.3333H28.2803L21.6386 38.825C21.1803 39.2333 20.5953 39.4383 20.0086 39.4383C19.4153 39.4383 18.8153 39.2283 18.3403 38.8067L11.8436 33.3333H5.83529C2.61862 33.3333 0.00195392 30.7167 0.00195392 27.5V5.83333C0.000287254 2.61667 2.61695 0 5.83362 0H34.167C37.3836 0 40.0003 2.61667 40.0003 5.83333ZM38.3336 5.83333C38.3336 3.53667 36.4653 1.66667 34.167 1.66667H5.83362C3.53529 1.66667 1.66695 3.53667 1.66695 5.83333V27.5C1.66695 29.7967 3.53529 31.6667 5.83362 31.6667H12.147C12.3436 31.6667 12.5336 31.7367 12.6836 31.8633L19.4303 37.5467C19.762 37.8433 20.2386 37.84 20.5536 37.56L27.4503 31.8583C27.6003 31.735 27.787 31.6667 27.9803 31.6667H34.167C36.4653 31.6667 38.3336 29.7967 38.3336 27.5V5.83333Z" fill="#E2AC6C"/>
</svg>
