<svg width="18" height="18" viewBox="0 0 18 18" fill="none" xmlns="http://www.w3.org/2000/svg">
<path d="M2.25 4.5C2.25 2.01825 4.26825 0 6.75 0C9.23175 0 11.25 2.01825 11.25 4.5C11.25 6.98175 9.23175 9 6.75 9C4.26825 9 2.25 6.98175 2.25 4.5ZM0 14.25V18H7.5L7.521 12C7.58175 11.4495 7.776 10.9388 8.07 10.5H3.75C1.67925 10.5 0 12.1792 0 14.25ZM14.25 15.75H12.75V15H9V18H18V15H14.25V15.75ZM16.125 10.5H15.75V10.125C15.75 9.50475 15.2452 9 14.625 9H12.375C11.7548 9 11.25 9.50475 11.25 10.125V10.5H10.875C9.8415 10.5 9 11.3415 9 12.375V13.5H18V12.375C18 11.3415 17.1585 10.5 16.125 10.5Z" fill="#052440"/>
</svg>
